<svg width="198" height="53" viewBox="0 0 198 53" fill="none" xmlns="http://www.w3.org/2000/svg">
<path d="M18.3286 0.0709039L42.0005 0L54.6417 21.8689L51.1927 27.7236L38.6021 5.96608L14.9961 5.79389L18.3286 0.0709039Z" fill="#243E85"/>
<path d="M12.4893 10.0166H18.6478L7.67792 28.8214L22.7805 28.786L30.6357 15.3192L15.5382 15.3496L18.6478 10.0166H36.5613L45.9004 26.4917L42.8211 31.769L35.0723 18.201L27.3893 31.3841L34.895 45.1091L45.9054 26.4866L48.8226 31.5006L36.3941 52.9137H12.1449L0 31.5057L12.4893 10.0166ZM30.2103 47.6364L22.8565 34.124H7.57663L15.1735 47.5705L30.2103 47.6364Z" fill="#C6C6C5"/>
<path d="M61.9707 41.8998L62.6342 40.9831C62.7051 41.0439 62.8064 41.1199 62.938 41.2212C63.0697 41.3174 63.3584 41.4491 63.794 41.6061C64.2346 41.7631 64.6853 41.8441 65.1614 41.8441C65.8299 41.8441 66.3262 41.7175 66.6554 41.4693C66.9846 41.2212 67.1417 40.8768 67.1417 40.4412C67.1417 40.0563 66.9897 39.7474 66.6858 39.5195C66.382 39.2865 65.7995 39.0434 64.9436 38.7902C63.9003 38.4762 63.1508 38.1216 62.7 37.7367C62.2493 37.3468 62.0214 36.8251 62.0214 36.1617C62.0214 35.4121 62.2999 34.8195 62.8621 34.384C63.4242 33.9484 64.2042 33.7256 65.212 33.7256C65.8401 33.7256 66.4073 33.8016 66.9036 33.9484C67.3999 34.0953 67.7443 34.2422 67.9317 34.3941L68.1951 34.617L67.5316 35.6197C67.4708 35.559 67.3848 35.4881 67.2683 35.407C67.1518 35.3209 66.8884 35.2146 66.4833 35.0728C66.0781 34.936 65.6577 34.8651 65.212 34.8651C64.6397 34.8651 64.1839 34.9765 63.8395 35.2044C63.4951 35.4324 63.3229 35.7464 63.3229 36.1515C63.3229 36.4858 63.4749 36.7593 63.7788 36.9619C64.0826 37.1695 64.6549 37.3974 65.4906 37.6405C66.5744 37.9545 67.3392 38.3242 67.7899 38.7497C68.2356 39.1751 68.4635 39.7221 68.4635 40.4058C68.4635 41.1756 68.1799 41.7985 67.6127 42.2746C67.0454 42.7507 66.2401 42.9887 65.1968 42.9887C64.7815 42.9887 64.3916 42.9533 64.0219 42.8773C63.6521 42.8013 63.3483 42.7152 63.1052 42.6139C62.8621 42.5076 62.6544 42.4063 62.4772 42.2949C62.2999 42.1885 62.1733 42.0923 62.0923 42.0163L61.9707 41.8998Z" fill="#999999"/>
<path d="M77.3627 33.9131V42.7761H76.1371V38.9372H71.3511V42.7761H70.1406V33.9131H71.3511V37.8584H76.1371V33.9131H77.3627Z" fill="#999999"/>
<path d="M80.9077 33.9131V42.7761H79.6973V33.9131H80.9077Z" fill="#999999"/>
<path d="M86.7973 33.9133C87.8406 33.9133 88.6611 34.1715 89.2637 34.6881C89.8664 35.2047 90.1652 35.929 90.1652 36.8659C90.1652 37.8383 89.8563 38.5929 89.2435 39.1247C88.6256 39.6565 87.795 39.9249 86.7416 39.9249H84.4524V42.7763H83.2419V33.9133H86.7973ZM88.9244 36.8963C88.9244 36.2784 88.732 35.8074 88.342 35.4934C87.952 35.1794 87.4202 35.0224 86.7416 35.0224H84.4524V38.8208H86.7416C88.1951 38.8158 88.9244 38.1726 88.9244 36.8963Z" fill="#999999"/>
<path d="M95.3212 33.9133C96.3645 33.9133 97.185 34.1715 97.7877 34.6881C98.3904 35.2047 98.6892 35.929 98.6892 36.8659C98.6892 37.8383 98.3802 38.5929 97.7674 39.1247C97.1495 39.6565 96.3189 39.9249 95.2655 39.9249H92.9763V42.7763H91.7659V33.9133H95.3212ZM97.4483 36.8963C97.4483 36.2784 97.2559 35.8074 96.8659 35.4934C96.4759 35.1794 95.9442 35.0224 95.2655 35.0224H92.9763V38.8208H95.2655C96.719 38.8158 97.4483 38.1726 97.4483 36.8963Z" fill="#999999"/>
<path d="M101.496 33.9131V42.7761H100.285V33.9131H101.496Z" fill="#999999"/>
<path d="M111.336 33.9131V42.7761H110.434L105.041 36.0554V42.7761H103.83V33.9131H104.732L110.11 40.573V33.9131H111.336Z" fill="#999999"/>
<path d="M120.213 38.992V38.9312H117.276V37.8524H121.485V38.5918C121.485 39.9289 121.125 40.9975 120.416 41.7876C119.702 42.5827 118.724 42.9778 117.484 42.9778C116.157 42.9778 115.088 42.5372 114.293 41.6559C113.493 40.7747 113.098 39.6757 113.098 38.3538C113.098 37.0269 113.503 35.9177 114.318 35.0365C115.129 34.1553 116.202 33.7147 117.529 33.7147C117.934 33.7147 118.319 33.7552 118.689 33.8311C119.059 33.9122 119.357 34.0084 119.59 34.1198C119.823 34.2312 120.021 34.3477 120.198 34.4591C120.37 34.5706 120.497 34.6668 120.573 34.7478L120.674 34.8643L119.95 35.7962C119.879 35.7253 119.783 35.6392 119.661 35.5379C119.54 35.4366 119.266 35.2948 118.851 35.1226C118.431 34.9504 117.99 34.8643 117.529 34.8643C116.572 34.8643 115.807 35.1986 115.225 35.862C114.642 36.5255 114.354 37.3561 114.354 38.3487C114.354 39.3313 114.637 40.1568 115.21 40.8253C115.782 41.4939 116.537 41.8231 117.484 41.8231C118.309 41.8231 118.973 41.5597 119.469 41.038C119.96 40.5215 120.213 39.8377 120.213 38.992Z" fill="#999999"/>
<path d="M133.518 42.7712V36.1872L130.743 39.7628H130.343L127.567 36.2176V42.7763H126.342L126.357 33.9133H127.243L130.55 38.1675L133.842 33.9133H134.729V42.7763H133.518V42.7712Z" fill="#999999"/>
<path d="M140.861 33.9131L144.599 42.7761H143.312L142.532 40.8718H138.025L137.24 42.7761H135.969L139.691 33.9131H140.861ZM140.284 35.4021L138.466 39.788H142.087L140.284 35.4021Z" fill="#999999"/>
<path d="M152.165 35.1235C152.996 35.9288 153.411 37.0025 153.411 38.3446C153.411 39.6817 152.996 40.7553 152.165 41.5657C151.335 42.3709 150.236 42.7761 148.878 42.7761H145.85V33.9131H148.878C150.241 33.9131 151.335 34.3132 152.165 35.1235ZM148.807 35.0172H147.065V41.6619H148.807C149.78 41.6619 150.585 41.3631 151.213 40.7705C151.841 40.1729 152.16 39.3626 152.16 38.3395C152.16 37.3165 151.846 36.5061 151.213 35.9085C150.585 35.316 149.78 35.0172 148.807 35.0172Z" fill="#999999"/>
<path d="M160.686 37.752V38.8308H156.386V41.667H161.425V42.7761H155.176V33.9131H161.425V35.0222H156.386V37.7571H160.686V37.752Z" fill="#999999"/>
<path d="M171.938 37.7522V38.831H167.638V41.6671H172.677V42.7763H166.428V33.9133H172.677V35.0224H167.638V37.7573H171.938V37.7522Z" fill="#999999"/>
<path d="M178.248 33.9131L181.986 42.7761H180.699L179.919 40.8718H175.412L174.627 42.7761H173.355L177.078 33.9131H178.248ZM177.67 35.4021L175.852 39.788H179.473L177.67 35.4021Z" fill="#999999"/>
<path d="M182.52 41.8998L183.183 40.9831C183.254 41.0439 183.35 41.1199 183.487 41.2212C183.624 41.3225 183.907 41.4491 184.343 41.6061C184.783 41.7631 185.234 41.8441 185.71 41.8441C186.379 41.8441 186.875 41.7175 187.204 41.4693C187.533 41.2212 187.69 40.8768 187.69 40.4412C187.69 40.0563 187.539 39.7474 187.235 39.5195C186.931 39.2916 186.348 39.0434 185.492 38.7902C184.449 38.4762 183.7 38.1216 183.249 37.7367C182.798 37.3468 182.57 36.8251 182.57 36.1617C182.57 35.4121 182.849 34.8195 183.411 34.384C183.973 33.9484 184.753 33.7256 185.761 33.7256C186.389 33.7256 186.956 33.8016 187.452 33.9484C187.949 34.0953 188.293 34.2422 188.481 34.3941L188.744 34.617L188.08 35.6197C188.02 35.559 187.934 35.4881 187.817 35.407C187.701 35.3209 187.437 35.2146 187.032 35.0728C186.627 34.936 186.207 34.8651 185.761 34.8651C185.189 34.8651 184.733 34.9765 184.388 35.2044C184.044 35.4324 183.872 35.7464 183.872 36.1515C183.872 36.4858 184.024 36.7593 184.328 36.9619C184.631 37.1644 185.204 37.3974 186.039 37.6405C187.123 37.9545 187.888 38.3242 188.339 38.7497C188.789 39.1751 189.012 39.7221 189.012 40.4058C189.012 41.1756 188.729 41.7985 188.161 42.2746C187.594 42.7507 186.789 42.9887 185.746 42.9887C185.33 42.9887 184.94 42.9533 184.571 42.8773C184.201 42.8013 183.897 42.7152 183.654 42.6139C183.411 42.5076 183.203 42.4063 183.026 42.2949C182.849 42.1885 182.722 42.0923 182.641 42.0163L182.52 41.8998Z" fill="#999999"/>
<path d="M193.578 37.6601L195.721 33.9072H197.108L193.872 39.3719V42.7703H192.646V39.3719L189.41 33.9072H190.798L192.971 37.6601L193.249 38.283H193.28L193.578 37.6601Z" fill="#999999"/>
<path d="M65.7689 20.9926C64.7965 20.6988 63.9507 20.2886 63.2417 19.7669C62.5326 19.2453 61.9856 18.6021 61.6007 17.8323C61.2158 17.0625 61.0234 16.1306 61.0234 15.0265C61.0234 12.5448 61.7932 10.7722 63.3278 9.70866C64.8623 8.6451 67.2883 8.11332 70.5954 8.11332C72.0338 8.11332 73.3303 8.23487 74.48 8.48303C75.6347 8.7312 76.6071 9.12624 77.4023 9.67828C78.2025 10.2303 78.8153 10.9545 79.2508 11.851C79.6813 12.7474 79.8991 13.8464 79.8991 15.143H74.5813C74.5813 14.7277 74.4597 14.3985 74.2116 14.1554C73.9634 13.9072 73.6342 13.7249 73.224 13.5932C72.8087 13.4666 72.3275 13.3805 71.7755 13.34C71.2235 13.2995 70.6511 13.2792 70.0637 13.2792C69.5116 13.2792 69.0356 13.3045 68.6304 13.3552C68.2252 13.4058 67.8859 13.4818 67.6124 13.5932C67.3389 13.6996 67.1313 13.8414 66.9945 14.0085C66.8578 14.1756 66.7869 14.3681 66.7869 14.5859C66.7869 14.8036 66.8628 14.9809 67.0097 15.1176C67.1566 15.2544 67.4199 15.3709 67.7947 15.457C68.1695 15.5431 68.676 15.6342 69.3141 15.7203C69.9522 15.8064 70.7575 15.9229 71.7198 16.0597C73.0011 16.2369 74.1559 16.48 75.189 16.7839C76.2222 17.0878 77.1085 17.5081 77.8479 18.0399C78.5874 18.5717 79.1597 19.2402 79.5598 20.0506C79.9649 20.8609 80.1675 21.8535 80.1675 23.0336C80.1675 25.3785 79.3825 27.0701 77.8175 28.1134C76.2526 29.1567 73.7963 29.6783 70.4486 29.6783C68.99 29.6783 67.6782 29.5568 66.5033 29.3086C65.3333 29.0605 64.3356 28.6654 63.5202 28.1134C62.7048 27.5613 62.0768 26.8371 61.6463 25.9407C61.2108 25.0442 60.998 23.9452 60.998 22.6487H66.3159C66.3159 23.064 66.4425 23.3932 66.7008 23.6363C66.954 23.8844 67.3035 24.0718 67.734 24.1985C68.1644 24.3251 68.6709 24.4112 69.2432 24.4517C69.8155 24.4922 70.403 24.5125 71.0158 24.5125C72.1553 24.5125 73.0113 24.4264 73.5734 24.2592C74.1356 24.0921 74.4141 23.7832 74.4141 23.3273C74.4141 23.0336 74.2673 22.8006 73.9685 22.6335C73.6747 22.4664 73.2746 22.3347 72.7732 22.2334C72.2718 22.1372 71.6945 22.046 71.0462 21.97C70.3979 21.8941 69.7193 21.8029 69.0102 21.7067C67.8201 21.5244 66.7413 21.2863 65.7689 20.9926Z" fill="black"/>
<path d="M82.5312 8.55469H88.1428V29.2334H82.5312V8.55469ZM84.8964 16.3845H98.7835V21.4086H84.8964V16.3845ZM96.1195 8.55469H101.731V29.2334H96.1195V8.55469Z" fill="black"/>
<path d="M104.689 8.55469H110.301V29.2334H104.689V8.55469Z" fill="black"/>
<path d="M113.26 23.3224V18.2983H122.508C123.278 18.2983 123.89 18.2477 124.356 18.1515C124.817 18.0552 125.167 17.9033 125.405 17.7058C125.643 17.5083 125.795 17.2601 125.86 16.9664C125.931 16.6726 125.962 16.3282 125.962 15.9332C125.962 15.5381 125.926 15.1938 125.86 14.9C125.79 14.6063 125.638 14.3581 125.405 14.1606C125.167 13.9631 124.817 13.8162 124.356 13.7149C123.895 13.6187 123.278 13.568 122.508 13.568H113.26V8.54395H122.715C124.427 8.54395 125.86 8.70095 127.015 9.01496C128.17 9.32896 129.092 9.79997 129.791 10.4178C130.489 11.0408 130.986 11.8055 131.285 12.7222C131.578 13.6389 131.73 14.7076 131.73 15.9281C131.73 17.1487 131.583 18.2173 131.285 19.134C130.991 20.0507 130.489 20.8154 129.791 21.4384C129.092 22.0563 128.165 22.5273 127.015 22.8413C125.866 23.1553 124.432 23.3123 122.715 23.3123H113.26V23.3224ZM113.26 8.55408H118.871V29.2328H113.26V8.55408Z" fill="black"/>
<path d="M136.106 10.8291C137.848 9.01594 140.522 8.10938 144.128 8.10938C147.734 8.10938 150.408 9.01594 152.15 10.8291C153.892 12.6422 154.763 15.3315 154.763 18.8919C154.763 22.4574 153.892 25.1467 152.15 26.9547C150.408 28.7678 147.734 29.6744 144.128 29.6744C140.522 29.6744 137.848 28.7678 136.106 26.9547C134.363 25.1416 133.492 22.4523 133.492 18.8919C133.492 15.3315 134.363 12.6422 136.106 10.8291ZM140.436 23.1056C141.221 24.0426 142.457 24.5085 144.128 24.5085C145.799 24.5085 147.035 24.0426 147.82 23.1056C148.605 22.1687 149 20.7658 149 18.897C149 17.0281 148.605 15.6252 147.82 14.6883C147.03 13.7513 145.799 13.2854 144.128 13.2854C142.335 13.2854 141.074 13.7513 140.345 14.6883C139.615 15.6252 139.251 17.0281 139.251 18.897C139.256 20.7658 139.646 22.1687 140.436 23.1056Z" fill="black"/>
<path d="M157.129 22.7358V17.7117H166.377C167.147 17.7117 167.759 17.6661 168.225 17.58C168.686 17.4939 169.036 17.3572 169.274 17.1799C169.512 17.0026 169.664 16.7849 169.73 16.5316C169.801 16.2784 169.831 15.9796 169.831 15.6453C169.831 15.3111 169.795 15.0173 169.73 14.759C169.659 14.5058 169.507 14.288 169.274 14.1108C169.041 13.9335 168.686 13.8018 168.225 13.7107C167.765 13.6246 167.147 13.579 166.377 13.579H157.129V8.55491H166.585C168.296 8.55491 169.73 8.70684 170.884 9.01072C172.039 9.31459 172.961 9.76535 173.66 10.3528C174.359 10.9454 174.855 11.6798 175.154 12.5711C175.448 13.4574 175.599 14.4805 175.599 15.6453C175.599 16.8051 175.453 17.8332 175.154 18.7195C174.86 19.6058 174.359 20.3453 173.66 20.9378C172.961 21.5304 172.034 21.9761 170.884 22.2799C169.735 22.5838 168.301 22.7358 166.585 22.7358H157.129ZM157.129 8.55491H162.74V29.2336H157.129V8.55491ZM175.589 29.2336H168.793L161.11 18.8917H167.906L175.589 29.2336Z" fill="black"/>
<path d="M183.774 8.55469H189.771L181.885 29.2334H175.889L183.774 8.55469ZM179.935 21.5251H193.822V26.5492H179.935V21.5251ZM191.665 29.2334L183.779 8.55469H189.776L197.661 29.2334H191.665Z" fill="black"/>
</svg>
